<svg width="88" height="96" viewBox="0 0 88 96" fill="none" xmlns="http://www.w3.org/2000/svg">
<g clip-path="url(#clip0_73_1547)">
<path d="M80.988 35.7713C81.1405 35.8592 81.6933 36.3111 81.6571 35.7713H81.0619C81.4283 34.6091 80.4234 32.799 82.2351 32.8244L82.3255 32.4944V20.1548L82.2343 19.7468C80.013 19.3018 78.74 16.7714 79.9454 14.676C81.0022 12.8382 83.3312 12.4549 84.8912 13.8662C86.8223 15.6131 86.1264 18.8082 83.7329 19.6219C83.6661 24.4004 83.836 29.1897 83.7432 33.9674C83.7408 34.107 83.6638 34.2142 83.6638 34.2281L82.0762 34.08C81.8899 34.1402 81.9646 34.488 81.9496 34.6468L83.663 35.0001C83.6551 35.2561 83.6708 35.5152 83.663 35.7713L81.8797 35.9263C81.9198 36.0497 81.919 36.3181 82.0015 36.3952C82.2303 36.6088 83.2706 36.9019 83.5891 36.6968C83.5804 36.9451 83.5765 37.2058 83.6048 37.4526C85.4447 38.3996 85.7348 40.1927 85.8929 42.1347C86.1225 44.9612 85.8457 48.4163 85.3496 51.2104C85.2874 51.559 85.0225 53.0876 84.8872 53.2757C84.7622 53.4485 82.9467 53.7408 82.5488 53.8573C80.311 54.5143 77.7225 56.2488 76.1932 58.0589C75.0311 59.434 74.4209 61.2787 73.4239 62.8204C71.6956 65.4935 69.9445 66.975 67.1398 68.3308C63.8453 69.9226 60.2952 70.909 56.7608 71.7519L55.421 75.952C56.5532 75.8934 57.8168 75.5772 58.953 75.7191C59.4334 75.7793 60.4524 76.9238 60.8102 77.3395C64.8281 82.0061 67.5314 89.6227 68.3531 95.7725C68.3908 96.0555 68.4632 96.3285 68.4278 96.6208H18.6304C18.5809 96.3185 18.6697 96.0524 18.7051 95.7725C19.3963 90.276 21.6364 84.2064 24.7391 79.7071C25.3068 78.8842 27.4306 76.0569 28.2381 75.78C28.5841 75.6613 29.6283 75.6929 30.0426 75.7176C30.7424 75.76 31.4682 75.9821 32.157 75.9914L30.803 71.728C27.3362 70.8951 23.7539 69.9511 20.5136 68.4079C17.1207 66.7922 15.3453 65.0199 13.4432 61.7075C12.9565 60.86 12.5657 59.8443 12.0775 59.0376C10.6157 56.6213 7.38251 54.4858 4.74844 53.7632C3.92676 53.538 2.66083 53.6344 2.37541 52.678C1.44994 49.5754 1.26124 43.3918 1.92958 40.229C2.14896 39.1901 2.57041 38.5269 3.31896 37.8143C3.78366 37.3724 4.06986 37.5289 3.98888 36.6968C4.30182 36.8371 5.28311 36.5217 5.50327 36.3173C5.58112 36.2448 5.53158 36.1129 5.55517 36.0906C5.58741 36.0605 5.86811 36.089 5.99942 36.0466C6.13073 36.0042 6.23688 35.8453 6.36662 35.7721C7.27007 35.26 9.77755 33.5556 10.3382 32.7589C10.8917 31.973 11.4885 29.2151 11.8652 28.0968C13.4715 23.3284 15.9955 17.2905 19.1863 13.4822C31.5877 -1.31761 55.0962 -1.84821 67.8711 12.7109C72.4764 17.9599 73.7431 24.0394 76.1759 30.392C77.2193 33.116 78.5269 34.3553 80.988 35.7713ZM23.7578 10.398C21.7874 12.0384 19.8547 13.9495 18.5172 16.1807C23.2522 11.1862 29.401 7.108 36.0813 5.64037C40.0686 4.76426 44.2572 4.63469 48.3121 5.08586C56.2505 5.96891 63.6314 10.1435 69.0584 16.1036C67.283 13.1552 64.6898 10.7644 61.9598 8.77847C58.151 6.04063 53.7965 4.26682 49.2006 3.54727C39.8807 2.08657 31.079 4.30306 23.757 10.398H23.7578ZM74.8927 29.3701C74.1347 26.5451 73.1385 23.6415 71.6248 21.1551C62.5133 6.18793 42.5486 1.32383 27.7223 9.99932C20.9814 13.9434 15.8312 19.5633 13.0745 27.1143C12.8755 27.6603 12.3865 28.8257 12.3118 29.3308C12.3047 29.3763 12.2921 29.4581 12.3495 29.4465C12.9723 28.7385 13.801 28.1987 14.4694 27.5585C15.4365 26.6331 15.898 25.5827 16.6372 24.4868C24.32 13.105 35.7063 8.91267 48.9081 10.5615C57.8058 11.6729 65.1144 16.1313 70.3149 23.6708C71.0477 24.7328 71.6988 26.1325 72.4426 27.0927C73.0756 27.9087 74.1308 28.6699 74.8927 29.3694V29.3701ZM25.0961 17.0306C24.9915 17.1077 24.8987 17.1856 24.7989 17.2619C21.9218 19.463 19.5527 21.9533 17.5288 25.0266C16.4311 26.694 15.7424 27.8678 15.383 29.8953C14.9584 32.2915 14.8939 34.7355 14.7658 37.1595C16.0899 36.1106 17.5076 35.1543 19.0015 34.3831C22.1726 32.7466 26.2134 31.4787 29.7045 30.8355C38.658 29.1866 49.0056 29.2707 57.9481 30.9126C60.8393 31.4432 63.6212 32.162 66.3465 33.3034C68.6409 34.2643 70.8574 35.5068 72.8121 37.0824C72.7312 34.9422 72.6116 32.772 72.2806 30.6558C71.9622 28.6197 71.6524 27.7891 70.6145 26.0608C68.4655 22.4831 65.8189 19.5918 62.5565 17.1085C52.2514 9.26435 35.483 9.32836 25.0969 17.0313L25.0961 17.0306ZM80.988 14.8711C78.8619 17.5041 83.0009 20.5543 84.704 17.6475C86.1822 15.1256 82.8437 12.5729 80.988 14.8711ZM28.3663 70.0136C34.5654 71.6679 40.9579 72.0041 47.3591 71.7905C51.4525 71.654 56.9291 70.9846 60.7717 69.5509C63.313 68.7658 66.0414 67.865 68.3547 66.5061C76.1169 61.9474 76.9913 48.4032 76.6744 40.2089C76.5533 37.0831 76.6288 33.5563 74.7449 30.9897C74.6128 30.8092 72.7815 28.5889 72.6643 28.7532C72.7799 29.6987 72.9851 30.6311 73.0999 31.5782C73.7659 37.0446 73.7722 43.5846 73.258 49.0749C72.5833 56.2712 70.9848 62.9315 63.5221 65.1163C56.315 67.2264 47.242 67.4061 39.7785 67.157C35.071 66.9997 29.6055 66.5901 25.0222 65.4634C15.291 63.0711 14.4953 54.2213 14.1737 45.2928C14.0047 40.5922 13.9433 35.5492 14.5527 30.8848C14.6581 30.0812 14.8192 29.2737 14.9867 28.4817L12.8692 30.6797C12.5445 31.2249 11.8313 31.8766 11.6073 32.455C11.3973 32.9964 11.2204 34.6152 11.1347 35.2808C10.4349 40.6755 10.5819 46.5368 11.4429 51.9061C12.1694 56.4324 13.4456 60.8145 16.4736 64.2703C19.1714 67.3498 24.5496 68.9948 28.3678 70.0136H28.3663ZM26.5083 65.0007C36.1804 67.019 47.8388 67.0228 57.5754 65.5405C57.6226 65.5336 57.6768 65.5482 57.724 65.5405C57.794 65.5297 57.8773 65.5513 57.9473 65.5405C61.0319 65.0485 65.2237 64.3582 67.6446 62.2219C72.2916 58.1213 72.6376 50.0914 72.809 44.2131C72.8601 42.4694 73.0339 40.5197 72.8861 38.7791C72.8129 37.9184 71.8678 37.296 71.2301 36.834C63.1762 30.999 50.656 30.1622 41.1152 30.4529C33.3246 30.6905 24.9443 31.7486 18.0588 35.7582C17.4093 36.1369 14.8916 37.7479 14.7658 38.4336L14.7611 44.682C14.7666 44.864 14.835 45.0329 14.8413 45.2157C15.0488 51.0485 15.4577 59.39 20.7164 62.8736C22.4439 64.0173 24.5126 64.585 26.5075 65.0007H26.5083ZM77.3459 34.7687C77.3687 34.9615 77.3899 35.1181 77.4206 35.3086C77.4513 35.4991 77.3435 35.7674 77.526 35.9317C78.1833 36.5464 79.3297 37.1294 79.91 37.7765C80.2269 38.1297 80.0673 38.7444 80.0932 39.2063C80.3731 44.2362 80.0012 49.2901 79.1292 54.2413C79.3887 54.165 79.6403 53.939 79.873 53.8179C81.1987 53.13 82.6235 52.6187 84.1033 52.4235C84.2999 51.1302 84.5704 49.8392 84.7032 48.5343C84.9368 46.2453 85.0248 43.728 84.7771 41.4406C84.7024 40.7526 84.6065 40.0678 84.2574 39.4732C83.5898 38.3364 82.2351 37.8906 81.1877 37.222C79.8267 36.3528 78.5796 35.3062 77.3082 34.3067C77.1824 34.4324 77.3333 34.6615 77.3459 34.7687ZM3.31896 39.4732C2.89829 40.2267 2.83224 40.9531 2.73396 41.8346C2.34867 45.2897 2.68127 48.825 3.33783 52.2169C3.44398 52.4891 4.33485 52.5385 4.65722 52.621C5.66132 52.8778 6.62846 53.2719 7.55471 53.74C7.80318 53.8657 8.07523 54.1264 8.37324 54.1634C8.14521 52.5493 7.86293 50.9297 7.7041 49.3055C7.3715 45.919 7.30388 42.4485 7.48394 39.0521C7.50281 38.7019 7.42418 38.2091 7.48237 37.8937C7.55628 37.4911 9.63838 36.1453 10.0111 35.7366C10.1518 35.5098 10.1259 35.2492 10.1558 35.0001C10.1683 34.8936 10.3405 34.2959 10.1196 34.3839C8.94723 35.2553 7.75993 36.1122 6.55219 36.9297C5.39477 37.7125 4.03212 38.1922 3.31739 39.4732H3.31896ZM9.04158 37.2366C8.81435 37.4348 8.13027 37.9114 8.0768 38.2022C7.98402 38.7043 8.09568 39.6382 8.07838 40.2089C7.96987 43.7643 8.10668 47.3018 8.53049 50.8387C8.65709 51.8929 8.80334 53.4655 9.06203 54.4519C9.19334 54.9516 9.51257 54.9393 9.85854 55.2061C10.258 55.5146 10.6889 55.921 11.1001 56.1933C11.2078 56.2642 11.2959 56.3637 11.2699 56.1717C11.0584 54.6069 10.556 52.9264 10.317 51.2983C9.59671 46.3957 9.54953 41.4089 9.93245 36.4654C9.61951 36.7014 9.33644 36.979 9.04158 37.2366ZM78.3862 37.3909C78.1 37.1618 77.8074 36.831 77.4953 36.6196C77.9018 41.8131 77.8365 47.0705 77.0267 52.2145C76.8301 53.4655 76.3104 55.1552 76.2294 56.3244C76.2262 56.373 76.2089 56.4516 76.2679 56.4401C76.7098 56.0923 77.1352 55.7174 77.5692 55.3611C77.8389 55.1398 78.2572 55.0025 78.3814 54.6231C78.5812 54.0153 78.7148 52.759 78.8202 52.0703C79.4398 48.0322 79.7158 43.3671 79.5043 39.278C79.4917 39.0313 79.4634 38.4852 79.4256 38.2801C79.3777 38.0194 78.6126 37.5736 78.3862 37.3924V37.3909ZM55.6427 72.0196C54.7809 72.1029 53.9278 72.2903 53.0692 72.3944C48.6172 72.935 44.1628 72.9913 39.6999 72.7908C37.0658 72.672 34.4561 72.3967 31.8598 71.9424L32.3559 73.4702C37.5352 74.4867 42.7593 74.8723 48.0243 74.4859C50.4123 74.3109 52.7885 73.9654 55.1473 73.5636L55.6435 72.0196H55.6427ZM54.8996 74.4096C49.0426 75.7068 42.9787 75.9705 37.0343 75.1708L32.6012 74.3718L33.2515 76.1842C40.1331 78.3266 47.4936 78.2225 54.3634 76.0909L54.8989 74.4096H54.8996ZM21.1568 89.6798C20.7243 90.8274 20.523 91.884 20.2651 93.0732C20.0512 94.0611 19.7273 95.0506 19.7446 96.081H27.2883L27.3873 95.9529C28.0753 89.47 29.8484 83.1074 32.6736 77.2978C32.7027 77.1343 32.6531 77.2091 32.5698 77.1837C32.2097 77.0742 31.7182 77.0117 31.3392 76.9546C30.7582 76.8675 30.0167 76.7433 29.4435 76.724C29.2037 76.7163 28.8852 76.6893 28.6603 76.7579C27.9597 76.9731 25.8745 79.8583 25.3768 80.6002C23.5337 83.3488 22.1042 86.4792 21.1568 89.679V89.6798ZM55.9407 77.0317C55.8031 77.0549 54.8179 77.0973 54.8234 77.2276C57.4732 83.0966 59.2447 89.4161 59.88 95.8882L59.9917 96.081H67.3128C67.1996 94.6102 66.8395 93.1842 66.4951 91.7621C66.411 91.4143 66.3614 91.0017 66.271 90.6446C66.2568 90.606 66.2333 90.6014 66.1979 90.6053C65.2284 86.9697 63.7124 83.3535 61.6507 80.2462C60.8196 78.9937 59.8635 77.6865 58.7139 76.7387C57.7728 76.6963 56.8583 76.8775 55.9415 77.0317H55.9407ZM50.8117 78.1115C45.7197 79.1665 41.0082 79.0994 35.9327 78.0104C35.5915 77.9372 33.8679 77.4305 33.717 77.5292C33.6352 77.5824 32.9433 79.0824 32.8363 79.3176C31.3369 82.6054 30.1456 86.4368 29.3688 89.9875C28.9324 91.9819 28.5542 94.0349 28.4402 96.0817C36.3172 96.0732 44.1982 96.0918 52.0753 96.0817C54.3288 96.0787 56.5855 96.0833 58.839 96.0817C58.7108 93.9308 58.3239 91.7822 57.8726 89.6798C56.9597 85.4304 55.546 81.3598 53.7753 77.4266C52.7767 77.6032 51.8056 77.9055 50.8117 78.1115Z" fill="#4F475F"/>
<path d="M3.83957 34.1517C3.77431 29.3601 3.88753 24.5608 3.84035 19.7677C3.80104 19.5587 3.26164 19.4191 3.04463 19.2826C-0.945799 16.773 3.54785 10.5199 7.00046 13.9441C9.02201 15.9493 7.85122 19.2 5.2486 19.7815V32.8738L6.24326 33.244C6.26606 34.0191 6.37064 34.8512 6.36671 35.6178C6.04826 35.6009 5.83046 35.8122 5.51201 35.8492C4.9506 35.9148 4.39862 35.7304 3.83957 35.7721C3.8262 35.5176 3.84586 35.2561 3.83957 35.0009L5.47898 34.6453L5.47505 34.0754L3.83957 34.1533V34.1517ZM3.17043 14.7169C0.666098 17.3568 4.98519 20.6222 6.73784 17.6476C8.13901 15.2699 5.12751 12.6539 3.17043 14.7169ZM6.14261 33.9975C5.86112 33.9127 5.62995 34.3538 5.84225 34.5026L6.14261 34.5373V33.9975Z" fill="#4F475F"/>
<path d="M6.36571 35.6171C6.36571 35.6687 6.36571 35.7196 6.36571 35.7713C6.23676 35.8446 6.13218 36.0027 5.99851 36.0459C5.86484 36.0891 5.58571 36.0598 5.55426 36.0898C5.53067 36.1122 5.5802 36.2448 5.50236 36.3166C5.28141 36.5209 4.3009 36.8364 3.98796 36.696C3.95887 36.3991 3.85901 36.1369 3.83936 35.7705C4.39841 35.7297 4.95038 35.9132 5.51179 35.8477C5.83024 35.8106 6.04804 35.5986 6.36649 35.6163L6.36571 35.6171Z" fill="#655C75"/>
<path d="M83.663 35.7713C83.6528 36.0852 83.5993 36.3829 83.5883 36.6968C83.2699 36.9019 82.2296 36.6089 82.0008 36.3952C81.9182 36.3181 81.919 36.0489 81.8789 35.9263L83.6622 35.7713H83.663Z" fill="#655C75"/>
<path d="M3.83959 34.1517L5.47508 34.0739L5.47901 34.6438L3.83959 34.9993C3.83251 34.7178 3.84352 34.4332 3.83959 34.151V34.1517Z" fill="#655C75"/>
<path d="M83.663 34.2289C83.6575 34.4849 83.6709 34.744 83.663 35.0001L81.9497 34.6469C81.9646 34.4888 81.8899 34.1402 82.0763 34.08L83.6638 34.2281L83.663 34.2289Z" fill="#655C75"/>
<path d="M81.0619 35.7713H81.6572C81.6933 36.3112 81.1406 35.8592 80.988 35.7713H81.0627H81.0619Z" fill="#655C75"/>
<path d="M71.3253 37.9307C71.5093 42.7709 71.2537 47.9404 70.1741 52.6619C68.3696 60.5499 65.4462 63.0549 58.1691 65.35C58.0472 65.3886 57.9049 65.3331 57.9473 65.5405C57.8773 65.5513 57.7948 65.5297 57.724 65.5405L57.6847 65.4626L57.5754 65.5405C47.8388 67.0228 36.1796 67.019 26.5083 65.0007C26.5468 64.8109 26.4233 64.8372 26.3062 64.7894C24.6164 64.1076 23.0989 63.4312 21.8613 61.9937C17.5697 57.0077 16.8259 46.779 17.0657 40.3562C17.0948 39.5665 17.1475 38.2539 17.2937 37.5081C17.3252 37.3461 17.3771 37.333 17.4887 37.2482C17.9031 36.9343 19.1179 36.4723 19.651 36.2525C25.9877 33.6404 33.3553 32.6347 40.1488 32.3802C50.3093 32 62.253 32.8368 71.3245 37.93L71.3253 37.9307ZM69.4405 43.2028C68.464 42.0899 67.0652 43.9663 68.3004 44.655C69.2188 45.1671 70.0837 43.9355 69.4405 43.2028ZM28.5715 45.046C24.5732 45.6098 25.1535 52.2531 29.5095 51.8035C33.6997 51.3708 33.187 44.3951 28.5715 45.046ZM58.2265 45.046C54.6638 45.5473 54.6716 51.4773 58.5056 51.812C63.3075 52.2308 63.3035 44.3319 58.2265 45.046ZM38.8239 50.595C38.1462 50.8032 38.9348 52.2392 39.1558 52.6086C41.3566 56.2858 46.6153 56.1833 48.6943 52.4313C48.8098 52.2223 49.214 51.4055 49.2297 51.2228C49.2659 50.8109 48.8091 50.5364 48.4497 50.713C48.272 50.8001 47.7939 52.0148 47.5706 52.3457C45.6812 55.1444 41.5421 54.809 39.9279 51.8837C39.6417 51.3654 39.5402 50.3752 38.8224 50.5958L38.8239 50.595ZM24.412 53.4555C23.7232 53.5218 21.2802 54.1218 22.1341 55.2331C23.069 56.4493 27.5155 56.393 28.5542 55.2863C29.298 54.4935 28.2711 53.9459 27.6059 53.7192C26.6482 53.3922 25.4137 53.3591 24.4112 53.4555H24.412ZM61.5745 53.4555C58.7839 53.7269 58.1455 55.547 61.3394 56.0445C62.4677 56.2203 63.9617 56.1632 65.0279 55.7283C66.2537 55.2277 66.3787 54.3979 65.1018 53.8364C64.0969 53.3953 62.6556 53.3506 61.5745 53.4555Z" fill="#E9E8ED"/>
<path d="M61.44 20.424L57.9465 30.9126C49.0041 29.2707 38.6573 29.1866 29.703 30.8355L26.2842 20.424C27.0335 19.9913 28.1532 19.5047 28.9623 19.1538C29.8201 18.782 30.733 18.418 31.6357 18.1874C32.4259 21.8669 38.2484 20.4247 36.9872 16.4907C40.2007 15.8244 43.4882 15.5876 46.76 15.8745C51.7113 16.308 57.1949 17.7347 61.4393 20.424H61.44ZM31.5421 22.1392C31.0239 22.2294 30.5695 22.7878 30.5278 23.3261C30.4405 24.4582 31.6884 25.1878 32.5651 24.5107C33.6124 23.7017 32.9779 21.8893 31.5429 22.1392H31.5421Z" fill="#A27CBC"/>
<path d="M74.7442 30.9897C74.6074 31.0684 74.6758 31.2666 74.6907 31.3908C75.6531 39.3452 75.624 47.5965 73.9036 55.4522C72.3617 62.4934 67.0991 67.1902 60.771 69.5509C56.9284 70.9846 51.4519 71.654 47.3584 71.7905C40.9572 72.0042 34.5639 71.6679 28.3656 70.0136C28.3931 69.8386 28.3113 69.7784 28.2201 69.6635C27.8852 69.2447 27.4134 68.8205 27.0643 68.3948C26.3252 67.4933 25.5813 66.4961 25.0215 65.4634C29.6048 66.5902 35.0703 66.9997 39.7778 67.157C47.2413 67.4061 56.3143 67.2264 63.5214 65.1164C70.9849 62.9307 72.5827 56.2712 73.2573 49.0749C73.7723 43.5846 73.7652 37.0446 73.0993 31.5782C72.9837 30.6319 72.7792 29.6987 72.6636 28.7532C72.7808 28.5889 74.6113 30.8093 74.7442 30.9897Z" fill="#A27BBB"/>
<path d="M51.0349 78.8056C52.6256 82.0594 53.2609 84.9931 52.9668 88.715C52.8292 90.4526 52.4149 92.1454 52.076 93.8444C53.588 93.3748 55.0631 92.4246 56.2386 91.3395C56.7261 90.8899 57.1232 90.3215 57.5737 89.8711C57.6641 89.7808 57.7302 89.6814 57.8733 89.6806C58.3246 91.7829 58.7115 93.9316 58.8396 96.0825C56.5861 96.0841 54.3295 96.0794 52.076 96.0825C52.12 95.8735 51.9761 95.929 51.8432 95.9036C49.173 95.39 46.2252 95.4062 43.5007 95.0707C40.9224 94.7529 38.2648 94.264 35.8343 93.3077C35.3979 93.1357 34.3129 92.7138 33.985 92.4501C33.9071 92.3876 33.8851 92.3752 33.8655 92.2657C33.8144 91.9796 33.8505 91.2801 33.8623 90.9508C33.8843 90.3539 33.9567 89.6305 34.0141 89.0266C34.3412 85.6309 35.0779 82.1365 36.689 79.1495C37.3865 79.2567 38.102 79.4596 38.8183 79.5675C42.8701 80.1784 47.0759 79.8197 51.0341 78.8071L51.0349 78.8056ZM42.9912 81.8349C39.7634 82.2128 37.7513 85.89 38.6949 89.0274C40.0544 93.5467 46.1906 94.2138 48.3977 90.067C50.5529 86.0181 47.3967 81.319 42.9912 81.8349Z" fill="#E9E8ED"/>
<path d="M72.8861 38.7791C72.342 38.5492 71.8403 38.2199 71.3253 37.9307C62.2539 32.8376 50.3101 32.0008 40.1497 32.381C33.3561 32.6355 25.9878 33.6412 19.6519 36.2533C19.1187 36.4731 17.9039 36.9351 17.4896 37.2489C17.3771 37.3338 17.326 37.3477 17.2946 37.5089C17.1483 38.2539 17.0956 39.5672 17.0665 40.357C16.8275 46.779 17.5705 57.0077 21.8621 61.9944C23.0997 63.432 24.6173 64.1083 26.307 64.7901C26.4234 64.8371 26.5468 64.8109 26.5091 65.0014C24.5143 64.585 22.4455 64.0181 20.7181 62.8744C15.4593 59.3908 15.0505 51.0492 14.8429 45.2165C14.8366 45.0337 14.7674 44.8655 14.7627 44.6828L14.7674 38.4343C14.894 37.7487 17.4109 36.1368 18.0604 35.7589C24.946 31.7494 33.3262 30.692 41.1168 30.4537C50.6569 30.1622 63.1778 30.9997 71.2318 36.8348C71.8694 37.2968 72.8146 37.9191 72.8877 38.7798L72.8861 38.7791Z" fill="#C4C4CD"/>
<path d="M62.5551 17.1077L61.5148 20.424C61.4968 20.4124 61.4582 20.4355 61.4401 20.424C57.1957 17.734 51.7121 16.308 46.7609 15.8745C43.4883 15.5876 40.2008 15.8252 36.9881 16.4907C36.9558 16.3905 36.5981 15.8391 36.5061 15.7187C34.6779 13.3256 30.9761 15.1095 31.6373 18.1874C30.7347 18.418 29.8218 18.782 28.964 19.1538C28.1549 19.5047 27.0352 19.9913 26.2859 20.424C26.2662 20.4355 26.2253 20.4116 26.2112 20.424L25.0962 17.0306C35.4823 9.32762 52.25 9.26361 62.5559 17.1077H62.5551Z" fill="#B790CC"/>
<path d="M25.0213 65.4634C25.5812 66.4961 26.325 67.494 27.0641 68.3948C27.4132 68.8205 27.885 69.2447 28.22 69.6635C28.3112 69.7776 28.3938 69.8386 28.3654 70.0136C24.5472 68.9948 19.169 67.349 16.4712 64.2703C13.444 60.8145 12.1671 56.4324 11.4405 51.9061C10.5788 46.5376 10.4325 40.6755 11.1323 35.2808C11.2188 34.6152 11.3949 32.9964 11.6049 32.455C11.8297 31.8766 12.5421 31.2249 12.8669 30.6797L14.9843 28.4817C14.8169 29.2738 14.6557 30.0805 14.5503 30.8848C13.9409 35.5484 14.0023 40.5915 14.1713 45.2928C14.4921 54.2213 15.2886 63.0711 25.0198 65.4634H25.0213Z" fill="#8E6BA7"/>
<path d="M50.8116 78.1114C50.88 78.2958 50.9579 78.6482 51.0349 78.8055C47.0775 79.8182 42.8709 80.176 38.8191 79.566C38.1028 79.458 37.3873 79.2552 36.6898 79.148C35.0787 82.1341 34.342 85.6293 34.0149 89.025C33.9567 89.6289 33.8851 90.3523 33.8631 90.9492C33.8505 91.2778 33.8152 91.978 33.8663 92.2642C33.8859 92.3744 33.9079 92.386 33.9858 92.4485C34.3129 92.7122 35.3988 93.1349 35.8351 93.3061C38.2648 94.2624 40.9225 94.7506 43.5015 95.0691C46.226 95.4053 49.1738 95.3884 51.844 95.902C51.9769 95.9275 52.12 95.8719 52.0768 96.0809C44.1997 96.091 36.3187 96.0725 28.4417 96.0809C28.5557 94.0341 28.9339 91.9819 29.3703 89.9867C30.1471 86.436 31.3391 82.6054 32.8378 79.3169C32.9447 79.0816 33.6367 77.5824 33.7185 77.5284C33.8694 77.4297 35.5938 77.9364 35.9342 78.0096C41.0097 79.0986 45.722 79.1657 50.8132 78.1107L50.8116 78.1114Z" fill="#C4C4CD"/>
<path d="M62.555 17.1077C65.8173 19.591 68.464 22.4831 70.6129 26.0601C71.6508 27.7884 71.9606 28.619 72.279 30.655C72.6101 32.7712 72.7296 34.9422 72.8106 37.0816C70.8558 35.506 68.6401 34.2636 66.3449 33.3026C66.3905 33.1399 66.433 32.9748 66.4259 32.8013C66.2277 28.3591 65.4485 22.9559 61.5139 20.4232L62.5542 17.1069L62.555 17.1077Z" fill="#FCFCFD"/>
<path d="M29.7037 30.8355C26.2133 31.4787 22.1726 32.7466 19.0007 34.3831C18.8765 34.306 18.9189 34.0931 18.9346 33.969C19.3875 30.3273 20.5678 26.3878 21.9737 23.0461C23.3198 22.1515 24.7162 21.378 26.1331 20.6106C26.2086 20.5697 26.1992 20.4348 26.2102 20.424C26.2236 20.4116 26.2652 20.4355 26.2849 20.424L29.7037 30.8355Z" fill="#E9E8ED"/>
<path d="M55.9406 77.0317C56.0664 77.1675 56.2465 77.2253 56.3865 77.3402C57.5541 78.2935 58.8075 81.1994 59.394 82.664C60.5035 85.4327 61.278 88.3456 61.819 91.2917L66.4942 91.7621C66.8386 93.1842 67.198 94.6102 67.312 96.081H59.9908L59.8792 95.8881C59.2439 89.416 57.4731 83.0974 54.8225 77.2276C54.817 77.0965 55.8022 77.0549 55.9398 77.0317H55.9406Z" fill="#8E6BA7"/>
<path d="M31.3392 76.9546C31.7182 77.0117 32.2096 77.0742 32.5698 77.1837C32.6531 77.2091 32.7026 77.1343 32.6735 77.2978C29.8492 83.1074 28.0753 89.4693 27.3873 95.9529L27.2882 96.081H19.7446C19.7273 95.0506 20.0504 94.0611 20.2651 93.0732C21.947 92.3027 23.6933 91.7197 25.5081 91.3804C26.3557 87.1918 27.5682 82.6624 29.8217 79.0439C30.2667 78.3289 30.8533 77.7444 31.2645 77.1096C31.2952 77.0626 31.3439 77.0287 31.3392 76.9546Z" fill="#8E6BA7"/>
<path d="M66.3456 33.3034C63.6204 32.162 60.8377 31.4432 57.9473 30.9126L61.4408 20.424C61.4588 20.4355 61.4974 20.4124 61.5155 20.424C65.4501 22.9567 66.2285 28.3599 66.4274 32.8021C66.4353 32.9756 66.392 33.1407 66.3464 33.3034H66.3456Z" fill="#E9E8ED"/>
<path d="M24.7989 17.2619C23.8389 19.1707 22.6925 21.0055 21.9746 23.0461C20.5687 26.3878 19.3885 30.3272 18.9356 33.969C18.9198 34.0931 18.8774 34.3052 19.0016 34.3831C17.5077 35.1543 16.09 36.1106 14.7659 37.1595C14.894 34.7356 14.9585 32.2923 15.3831 29.8954C15.7424 27.8678 16.4312 26.6932 17.5289 25.0266C19.5528 21.9533 21.9219 19.4622 24.7989 17.2619Z" fill="#C4C4CD"/>
<path d="M50.8116 78.1115C51.8055 77.9056 52.7765 77.6032 53.7751 77.4266C55.5458 81.3599 56.9596 85.4304 57.8725 89.6798C57.7294 89.6806 57.6633 89.7801 57.5729 89.8703C57.1223 90.3207 56.7253 90.8891 56.2378 91.3387C55.0623 92.4238 53.5872 93.374 52.0752 93.8437C52.414 92.1447 52.8284 90.4526 52.966 88.7143C53.2609 84.9923 52.6248 82.0586 51.0341 78.8048C50.957 78.6475 50.8792 78.295 50.8108 78.1107L50.8116 78.1115Z" fill="#FCFCFD"/>
<path d="M7.55548 53.7408C6.62844 53.2719 5.66131 52.8786 4.658 52.6218C4.33562 52.5392 3.44475 52.4899 3.3386 52.2176C2.68205 48.8258 2.34945 45.2898 2.73473 41.8354C2.83302 40.9539 2.89985 40.2267 3.31973 39.474C4.69574 39.1045 6.07332 38.3464 7.25905 37.5459C7.28421 37.704 7.22996 37.8205 7.1757 37.96C5.84451 41.3897 6.57576 45.4664 6.82266 49.0657L7.55627 53.7416L7.55548 53.7408Z" fill="#A27BBB"/>
<path d="M84.2581 39.4732C84.6073 40.0678 84.7032 40.7526 84.7779 41.4406C85.0256 43.728 84.9375 46.2453 84.704 48.5343C84.5703 49.8392 84.3006 51.1302 84.104 52.4236C82.6242 52.6195 81.2003 53.1308 79.8738 53.8179C80.1498 52.2369 80.4777 50.659 80.6805 49.0641C81.0084 46.4875 81.2199 43.4149 81.0619 40.8236C80.9958 39.7423 80.7017 38.722 80.3935 37.6994C81.5659 38.4729 82.8861 39.2063 84.2581 39.4732Z" fill="#A27BBB"/>
<path d="M60.7717 69.5509C67.099 67.1902 72.3617 62.4934 73.9044 55.4521C75.6248 47.5965 75.6546 39.3452 74.6914 31.3908C74.6765 31.2674 74.6081 31.0692 74.7449 30.9897C76.6289 33.5563 76.5534 37.0831 76.6745 40.2089C76.9921 48.4032 76.1178 61.9474 68.3547 66.5061C66.0414 67.8642 63.3138 68.7658 60.7717 69.5509Z" fill="#B790CC"/>
<path d="M72.8861 38.7791C73.0339 40.5197 72.8594 42.4694 72.809 44.2131C72.6376 50.0914 72.2909 58.1213 67.6447 62.2219C65.2237 64.3582 61.032 65.0485 57.9474 65.5405C57.9049 65.3338 58.0472 65.3886 58.1691 65.35C65.447 63.0549 68.3704 60.5492 70.1742 52.6619C71.2546 47.9404 71.5093 42.7709 71.3253 37.9307C71.8403 38.2199 72.342 38.5492 72.8861 38.7791Z" fill="#FCFCFD"/>
<path d="M31.2643 77.1088C30.8531 77.7443 30.2665 78.3289 29.8215 79.0431C27.568 82.6616 26.3555 87.191 25.5079 91.3796C23.6923 91.7197 21.9468 92.3019 20.2649 93.0724C20.5228 91.8832 20.7241 90.8266 21.1565 89.679C22.7763 85.3817 26.03 79.7935 30.0739 77.6078C30.4316 77.4142 30.8727 77.2114 31.2643 77.1081V77.1088Z" fill="#A27BBB"/>
<path d="M61.9606 8.7785C64.6907 10.7644 67.2838 13.1552 69.0593 16.1036C63.6323 10.1443 56.2514 5.96893 48.313 5.08588C44.2573 4.63472 40.0695 4.76428 36.0822 5.64039C29.4019 7.10803 23.2531 11.1863 18.5181 16.1807C19.8555 13.9496 21.7882 12.0385 23.7587 10.3981C23.7673 10.5107 24.0591 10.314 24.0771 10.3009C25.7173 9.07465 27.6666 7.97566 29.5293 7.09261C39.5631 2.33802 52.4599 2.92877 61.9253 8.85408L61.9614 8.7785H61.9606Z" fill="#CDABDF"/>
<path d="M56.3865 77.3402C58.4088 78.0112 60.0891 79.583 61.3959 81.2812C63.4985 84.0152 65.1057 87.3669 66.1247 90.6832C66.1577 90.6724 66.186 90.606 66.1978 90.6053C66.2332 90.6022 66.2568 90.6061 66.2709 90.6446C66.3614 91.0009 66.4109 91.4143 66.495 91.7621L61.8197 91.2917C61.278 88.3464 60.5043 85.4327 59.3948 82.664C58.8083 81.1994 57.5549 78.2935 56.3873 77.3402H56.3865Z" fill="#A27CBC"/>
<path d="M55.6426 72.0196L55.1465 73.5636C52.7876 73.9661 50.4114 74.3109 48.0235 74.4859C42.7585 74.8723 37.5343 74.4859 32.355 73.4702L31.8589 71.9424C34.4552 72.3967 37.0657 72.672 39.699 72.7908C44.162 72.9913 48.6163 72.935 53.0683 72.3944C53.9269 72.2903 54.7808 72.1029 55.6418 72.0196H55.6426ZM51.5547 73.4078L36.6899 73.5998C39.8303 74.0201 43.069 74.2438 46.2441 74.1042C47.926 74.0301 49.7627 73.7664 51.4454 73.5612C51.5563 73.5474 51.6726 73.5003 51.5555 73.407L51.5547 73.4078Z" fill="#655C75"/>
<path d="M54.8997 74.4096L54.3642 76.0909C47.4936 78.2225 40.1331 78.3267 33.2523 76.1842L32.6021 74.3718L37.0352 75.1708C42.9795 75.9706 49.0426 75.7068 54.9005 74.4096H54.8997ZM53.3389 75.7986C50.0671 76.1595 46.7797 76.0785 43.4883 76.1032C41.267 76.1194 39.0331 76.2205 36.7993 76.1094C35.9729 76.0685 35.1402 75.8996 34.3114 75.9135C39.1597 77.4706 44.5631 77.6426 49.5639 76.778C50.7103 76.5798 52.0289 76.2976 53.1321 75.9289C53.2099 75.9027 53.3562 75.9096 53.3389 75.7986Z" fill="#655C75"/>
<path d="M61.9605 8.7785L61.9244 8.85408C52.459 2.92954 39.563 2.33878 29.5284 7.0926C27.6649 7.97565 25.7165 9.07465 24.0763 10.3009C24.0582 10.3148 23.7665 10.5107 23.7578 10.3981C31.0798 4.30309 39.8815 2.08659 49.2014 3.54729C53.7973 4.26761 58.151 6.04065 61.9605 8.7785Z" fill="#E9E8ED"/>
<path d="M9.0415 37.2366C9.33635 36.979 9.62021 36.7014 9.93236 36.4654C9.55023 41.4089 9.59662 46.3964 10.3169 51.2983C10.5559 52.9264 11.0591 54.6061 11.2698 56.1717C11.2958 56.363 11.2069 56.2643 11.1 56.1933C10.6888 55.9211 10.2579 55.5146 9.85845 55.2061C9.99055 55.1429 9.88912 54.9524 9.87261 54.846C9.30883 51.2721 8.78045 47.6998 8.66643 44.065C8.59488 41.7784 8.66565 39.4871 9.0415 37.2366Z" fill="#8E6BA7"/>
<path d="M78.386 37.3909C78.3357 38.2014 78.504 39.012 78.5378 39.8171C78.7532 44.9612 78.2351 49.6472 77.5793 54.7156C77.5565 54.8907 77.4959 55.2061 77.5683 55.3604C77.1342 55.7167 76.7096 56.0923 76.267 56.4393C76.2088 56.4509 76.2253 56.3722 76.2284 56.3236C76.3094 55.1552 76.8292 53.4647 77.0257 52.2138C77.8356 47.0697 77.9001 41.8131 77.4944 36.6189C77.8073 36.8302 78.0998 37.1611 78.3852 37.3901L78.386 37.3909Z" fill="#8E6BA7"/>
<path d="M77.5684 55.3604C77.496 55.2061 77.5566 54.8907 77.5794 54.7156C78.2351 49.6472 78.7533 44.9612 78.5379 39.8171C78.5041 39.012 78.3358 38.2014 78.3861 37.3909C78.6126 37.5721 79.3776 38.0179 79.4256 38.2785C79.4633 38.4845 79.4916 39.0305 79.5042 39.2765C79.7149 43.3655 79.4397 48.0307 78.8202 52.0688C78.7148 52.7575 78.5811 54.0138 78.3814 54.6215C78.2572 55.001 77.8389 55.1375 77.5692 55.3596L77.5684 55.3604Z" fill="#A27BBB"/>
<path d="M10.1566 35.0001C10.1267 35.2492 10.1527 35.5091 10.0119 35.7366C9.63923 36.1454 7.55712 37.4911 7.48321 37.8937C7.42503 38.2091 7.50287 38.702 7.48479 39.0521C7.30473 42.4493 7.37235 45.9191 7.70495 49.3055C7.86456 50.9297 8.14606 52.5493 8.37408 54.1634C8.07608 54.1264 7.80402 53.8658 7.55555 53.74L6.82194 49.0641C6.57583 45.4648 5.8438 41.3881 7.17499 37.9585C7.22924 37.8189 7.28271 37.7017 7.25833 37.5444C7.86063 37.1371 9.10848 36.2526 9.56688 35.7366C9.77289 35.5045 9.74144 35.0564 10.1574 34.9993L10.1566 35.0001Z" fill="#8E6BA7"/>
<path d="M79.6496 37.0824C79.6684 37.0909 79.7125 37.1379 79.7243 37.1595C79.74 37.188 79.7038 37.2883 79.7266 37.3122C79.7494 37.3361 79.8375 37.3006 79.8729 37.3138C80.1418 37.4148 80.185 37.5621 80.3934 37.6994C80.7016 38.722 80.9957 39.7423 81.0618 40.8236C81.219 43.4149 81.0083 46.4875 80.6804 49.0641C80.4775 50.6598 80.1489 52.2377 79.8737 53.8179C79.6409 53.939 79.3885 54.165 79.1298 54.2413C80.0018 49.2901 80.3738 44.2363 80.0938 39.2063C80.0679 38.7444 80.2283 38.1297 79.9106 37.7765C79.3303 37.1294 78.1839 36.5464 77.5266 35.9317C77.3434 35.7675 77.4527 35.5076 77.4212 35.3086C78.1493 35.7736 78.6974 36.4916 79.3901 37.0091C79.5112 37.0994 79.5977 37.0577 79.6511 37.0824H79.6496Z" fill="#8E6BA7"/>
<path d="M9.85947 55.2061C9.5135 54.9393 9.19427 54.9516 9.06296 54.4519C8.80348 53.4655 8.65802 51.8929 8.53142 50.8387C8.10761 47.3019 7.97001 43.7643 8.07931 40.2089C8.0966 39.6382 7.98574 38.7043 8.07773 38.2022C8.1312 37.9107 8.81527 37.4348 9.04251 37.2366C8.66667 39.487 8.5959 41.7784 8.66745 44.065C8.78146 47.6998 9.30985 51.2721 9.87362 54.846C9.89014 54.9524 9.99235 55.1429 9.85947 55.2061Z" fill="#A27BBB"/>
<path d="M66.1969 90.6053C66.1851 90.6061 66.1568 90.6724 66.1237 90.6832C65.1047 87.3669 63.4975 84.0152 61.395 81.2812C60.089 79.583 58.4087 78.0104 56.3855 77.3403C56.2448 77.2253 56.0655 77.1675 55.9397 77.0318C56.8565 76.8783 57.771 76.6963 58.7122 76.7387C59.8617 77.6865 60.8179 78.9938 61.649 80.2462C63.7114 83.3535 65.2274 86.969 66.1961 90.6053H66.1969Z" fill="#B790CC"/>
<path d="M31.3395 76.9546C31.3442 77.0287 31.2954 77.0618 31.2648 77.1089C30.8732 77.2122 30.4313 77.415 30.0743 77.6086C26.0304 79.7943 22.7767 85.3825 21.157 89.6798C22.1045 86.48 23.5339 83.3496 25.377 80.601C25.8747 79.8583 27.9592 76.9739 28.6606 76.7587C28.8854 76.6893 29.2039 76.7163 29.4437 76.7248C30.0169 76.7441 30.7584 76.8682 31.3395 76.9554V76.9546Z" fill="#B790CC"/>
<path d="M84.704 17.6476C83.0104 17.8026 81.4016 16.5694 80.988 14.8711C82.8437 12.5729 86.1823 15.1257 84.704 17.6476Z" fill="#B790CC"/>
<path d="M26.2111 20.424C26.1994 20.4348 26.2096 20.5697 26.1341 20.6106C24.718 21.378 23.3207 22.1515 21.9746 23.0461C22.6925 21.0055 23.8389 19.1707 24.799 17.2619C24.8996 17.1856 24.9916 17.1077 25.0962 17.0306L26.2111 20.424Z" fill="#FCFCFD"/>
<path d="M84.7039 17.6476C83.0008 20.5543 78.8618 17.5041 80.9879 14.8712C81.4015 16.5694 83.0103 17.8026 84.7039 17.6476Z" fill="#8E6BA7"/>
<path d="M3.31885 39.4732C4.03359 38.1929 5.39623 37.7125 6.55365 36.9297C7.76139 36.1122 8.94869 35.2554 10.1211 34.3839C10.3412 34.296 10.1698 34.8936 10.1572 35.0001C9.74127 35.0571 9.77272 35.5052 9.56672 35.7374C9.10831 36.2533 7.86125 37.1379 7.25817 37.5451C6.07244 38.3456 4.69486 39.1038 3.31885 39.4732Z" fill="#B790CC"/>
<path d="M84.2581 39.4732C82.8852 39.2063 81.5658 38.4729 80.3935 37.6994C80.1859 37.5621 80.1426 37.4148 79.8729 37.3138C79.8997 37.1726 79.8588 37.1364 79.7243 37.1595C79.7125 37.1379 79.6693 37.0909 79.6496 37.0824L77.3458 34.7687C77.3332 34.6615 77.1822 34.4325 77.308 34.3068C78.5803 35.3055 79.8265 36.3528 81.1876 37.222C82.2357 37.8914 83.5905 38.3364 84.2573 39.4732H84.2581Z" fill="#B790CC"/>
<path d="M79.6496 37.0824C79.5961 37.0577 79.5096 37.0994 79.3885 37.0091C78.6958 36.4924 78.1478 35.7736 77.4197 35.3086C77.389 35.1181 77.3686 34.9615 77.345 34.7687L79.6488 37.0824H79.6496Z" fill="#A27BBB"/>
<path d="M57.724 65.5414C57.6769 65.5491 57.6226 65.5343 57.5754 65.5414L57.6847 65.4626L57.724 65.5414Z" fill="#FCFCFD"/>
<path d="M6.73757 17.6476C5.0667 17.7771 3.39505 16.4576 3.17017 14.7169C5.12803 12.6539 8.13874 15.2699 6.73757 17.6476Z" fill="#B790CC"/>
<path d="M6.73799 17.6476C4.98534 20.6222 0.666247 17.3568 3.17058 14.7169C3.39546 16.4576 5.06712 17.7771 6.73799 17.6476Z" fill="#8E6BA7"/>
<path d="M6.14236 33.9975V34.5373L5.842 34.5026C5.6297 34.3538 5.86087 33.9127 6.14236 33.9975Z" fill="#655C75"/>
<path d="M28.5715 45.046C33.187 44.3951 33.6989 51.3708 29.5095 51.8035C25.1535 52.2531 24.5732 45.6098 28.5715 45.046ZM28.3466 46.0478C27.6775 46.2283 27.6209 47.4091 28.3631 47.6111C29.7564 47.9906 29.7588 45.6669 28.3466 46.0478Z" fill="#4F475F"/>
<path d="M58.2263 45.046C63.3042 44.3319 63.3073 52.2307 58.5055 51.812C54.6715 51.4772 54.6629 45.5481 58.2263 45.046ZM57.5541 46.199C56.6247 46.4173 56.8692 48.0831 57.9661 47.8633C59.0095 47.6543 58.6934 45.9306 57.5541 46.199Z" fill="#4F475F"/>
<path d="M24.4121 53.4555C25.4146 53.3583 26.6491 53.3922 27.6068 53.7192C28.272 53.946 29.2989 54.4935 28.5551 55.2863C27.5164 56.3931 23.0699 56.4493 22.135 55.2331C21.2803 54.1218 23.7233 53.5226 24.4129 53.4555H24.4121Z" fill="#E8B6D3"/>
<path d="M61.5745 53.4555C62.6557 53.3506 64.0969 53.3953 65.1018 53.8364C66.3788 54.3971 66.253 55.2277 65.0279 55.7283C63.9617 56.1632 62.4678 56.2203 61.3394 56.0445C58.1455 55.5478 58.784 53.7269 61.5745 53.4555Z" fill="#E8B6D3"/>
<path d="M38.824 50.595C39.5419 50.3744 39.6433 51.3647 39.9295 51.8829C41.5438 54.809 45.6828 55.1437 47.5723 52.3449C47.7956 52.014 48.2728 50.7994 48.4513 50.7122C48.8107 50.5356 49.2667 50.8109 49.2313 51.222C49.2156 51.4048 48.8115 52.2215 48.6959 52.4305C46.6161 56.1825 41.3582 56.2851 39.1574 52.6079C38.9364 52.2385 38.147 50.8024 38.8256 50.5942L38.824 50.595Z" fill="#4F475F"/>
<path d="M69.4405 43.2028C70.0837 43.9363 69.2188 45.1671 68.3004 44.655C67.0651 43.9663 68.4639 42.0892 69.4405 43.2028Z" fill="#FCFCFD"/>
<path d="M36.988 16.4907C38.2492 20.4247 32.4267 21.8669 31.6365 18.1874C30.9752 15.1087 34.6778 13.3256 36.5052 15.7187C36.5972 15.839 36.9557 16.3905 36.9872 16.4907H36.988Z" fill="#FCFCFD"/>
<path d="M31.5422 22.1392C32.9771 21.8893 33.6117 23.7017 32.5643 24.5107C31.6876 25.1878 30.4398 24.4582 30.527 23.3261C30.5687 22.7878 31.0232 22.2294 31.5414 22.1392H31.5422Z" fill="#FCFCFD"/>
<path d="M42.9913 81.8349C47.3968 81.319 50.553 86.018 48.3978 90.067C46.1907 94.2131 40.0537 93.5467 38.695 89.0274C37.7514 85.8908 39.7635 82.2128 42.9913 81.8349ZM43.4387 82.5306C40.3281 82.772 38.3804 86.2155 39.5756 89.1924C41.0192 92.7878 45.9281 93.1711 47.7955 89.7508C49.6134 86.4214 47.1201 82.2452 43.4387 82.5306Z" fill="#4F475F"/>
<path d="M51.5546 73.4077C51.6725 73.5011 51.5554 73.5481 51.4445 73.562C49.7618 73.7671 47.9259 74.0309 46.2432 74.1049C43.0681 74.2445 39.8294 74.0209 36.689 73.6006L51.5538 73.4085L51.5546 73.4077Z" fill="#8E6BA7"/>
<path d="M53.3387 75.7986C53.356 75.9096 53.2098 75.9027 53.1319 75.9289C52.0288 76.2976 50.711 76.5798 49.5638 76.778C44.5629 77.6426 39.1596 77.4706 34.3113 75.9135C35.1392 75.8996 35.9727 76.0685 36.7991 76.1094C39.033 76.2197 41.2668 76.1194 43.4881 76.1032C46.7795 76.0785 50.067 76.1595 53.3387 75.7986Z" fill="#8E6BA7"/>
<path d="M79.7243 37.1595C79.8588 37.1364 79.8997 37.1726 79.8729 37.3138C79.8375 37.3007 79.7487 37.3346 79.7267 37.3122C79.7047 37.2899 79.7401 37.1881 79.7243 37.1595Z" fill="#A27BBB"/>
<path d="M28.3466 46.0478C29.7596 45.6676 29.7564 47.9913 28.3631 47.6111C27.6201 47.4091 27.6775 46.2275 28.3466 46.0478Z" fill="#FCFCFD"/>
<path d="M57.5541 46.199C58.6934 45.9314 59.0095 47.6543 57.9661 47.8633C56.8692 48.0831 56.6247 46.4173 57.5541 46.199Z" fill="#FCFCFD"/>
<path d="M43.4387 82.5306C47.1201 82.2452 49.6134 86.4214 47.7955 89.7508C45.9281 93.1712 41.0192 92.7879 39.5756 89.1924C38.3804 86.2163 40.3281 82.772 43.4387 82.5306Z" fill="#CDABDF"/>
</g>
<defs>
<clipPath id="clip0_73_1547">
<rect width="88" height="96" fill="white"/>
</clipPath>
</defs>
</svg>
