<svg width="49" height="40" viewBox="0 0 49 40" fill="none" xmlns="http://www.w3.org/2000/svg">
<g clip-path="url(#clip0_73_1620)">
<path d="M44.1375 19.2768C44.2185 19.3241 44.512 19.5677 44.4928 19.2768H44.1768C44.3713 18.6504 43.8378 17.675 44.7996 17.6887L44.8476 17.5109V10.8612L44.7992 10.6413C43.6199 10.4015 42.944 9.03795 43.584 7.90876C44.1451 6.91837 45.3816 6.71182 46.2098 7.47237C47.2351 8.41371 46.8656 10.1356 45.5949 10.574C45.5594 13.1491 45.6496 15.73 45.6003 18.3047C45.5991 18.3799 45.5582 18.4377 45.5582 18.4451L44.7153 18.3653C44.6164 18.3978 44.656 18.5852 44.6481 18.6708L45.5577 18.8612C45.5536 18.9991 45.5619 19.1388 45.5577 19.2768L44.6109 19.3603C44.6322 19.4268 44.6318 19.5714 44.6756 19.613C44.7971 19.7281 45.3494 19.886 45.5185 19.7755C45.5139 19.9093 45.5118 20.0498 45.5268 20.1828C46.5037 20.6931 46.6577 21.6594 46.7416 22.7059C46.8635 24.2291 46.7166 26.091 46.4532 27.5967C46.4202 27.7846 46.2795 28.6083 46.2077 28.7097C46.1413 28.8028 45.1774 28.9603 44.9662 29.0231C43.7781 29.3772 42.4038 30.3119 41.5919 31.2873C40.9749 32.0283 40.6509 33.0224 40.1216 33.8532C39.204 35.2937 38.2744 36.0921 36.7853 36.8227C35.0361 37.6805 33.1513 38.2121 31.2748 38.6663L30.5635 40.9297C31.1646 40.8981 31.8355 40.7277 32.4387 40.8042C32.6938 40.8366 33.2348 41.4534 33.4248 41.6774C35.558 44.1922 36.9932 48.2967 37.4294 51.6107C37.4495 51.7633 37.4879 51.9104 37.4691 52.0679H11.0307C11.0044 51.905 11.0515 51.7616 11.0703 51.6107C11.4373 48.6487 12.6266 45.3779 14.2739 42.9533C14.5753 42.5098 15.7029 40.9862 16.1316 40.837C16.3153 40.773 16.8696 40.7901 17.0896 40.8034C17.4612 40.8262 17.8465 40.9459 18.2122 40.9509L17.4933 38.6535C15.6528 38.2046 13.7508 37.6959 12.0305 36.8643C10.2292 35.9936 9.28653 35.0385 8.2767 33.2535C8.0183 32.7968 7.81082 32.2494 7.55158 31.8147C6.77553 30.5126 5.05894 29.3618 3.66046 28.9724C3.22422 28.851 2.55211 28.903 2.40057 28.3876C1.90923 26.7157 1.80904 23.3833 2.16388 21.679C2.28035 21.1191 2.5041 20.7617 2.90152 20.3777C3.14824 20.1396 3.30019 20.2239 3.25719 19.7755C3.42334 19.8511 3.94433 19.6811 4.06122 19.571C4.10255 19.5319 4.07625 19.4609 4.08877 19.4488C4.10589 19.4326 4.25492 19.448 4.32463 19.4251C4.39435 19.4023 4.45071 19.3167 4.51959 19.2772C4.99924 19.0012 6.33052 18.0827 6.62816 17.6534C6.92205 17.2299 7.23891 15.7437 7.43887 15.1411C8.29173 12.5714 9.63177 9.31765 11.3258 7.2654C17.91 -0.710032 30.3911 -0.995967 37.1735 6.8498C39.6186 9.6784 40.2911 12.9546 41.5827 16.3779C42.1367 17.8458 42.8309 18.5137 44.1375 19.2768ZM13.7529 5.6034C12.7068 6.48739 11.6807 7.51726 10.9706 8.7196C13.4845 6.02815 16.749 3.83044 20.2957 3.03954C22.4126 2.56742 24.6364 2.4976 26.7893 2.74073C31.0039 3.21659 34.9226 5.46625 37.8039 8.67804C36.8613 7.08919 35.4845 5.80082 34.0351 4.73064C32.0129 3.25524 29.701 2.29936 27.261 1.9116C22.3129 1.12444 17.6403 2.31889 13.7529 5.6034ZM40.9014 15.8273C40.499 14.3049 39.9701 12.7401 39.1665 11.4002C34.329 3.33462 23.7293 0.713412 15.8577 5.38854C12.2789 7.51393 9.54452 10.5424 8.08091 14.6116C7.9753 14.9059 7.71564 15.5338 7.67598 15.8061C7.67223 15.8306 7.66555 15.8746 7.69602 15.8684C8.02665 15.4869 8.46665 15.196 8.82149 14.851C9.33496 14.3523 9.58 13.7862 9.97241 13.1957C14.0514 7.06217 20.0966 4.80295 27.1057 5.69151C31.8297 6.2904 35.7099 8.693 38.471 12.7559C38.8601 13.3282 39.2057 14.0825 39.6006 14.6C39.9367 15.0397 40.4969 15.4503 40.9014 15.8273ZM14.4634 9.1776C14.4079 9.21916 14.3586 9.26113 14.3056 9.30228C12.7781 10.4884 11.5203 11.8304 10.4458 13.4866C9.86304 14.3851 9.49735 15.0177 9.30657 16.1103C9.08114 17.4016 9.04691 18.7186 8.97887 20.0249C9.68186 19.4596 10.4345 18.9443 11.2277 18.5287C12.9113 17.6468 15.0566 16.9635 16.9101 16.6169C21.6637 15.7283 27.1575 15.7736 31.9052 16.6585C33.4402 16.9444 34.9172 17.3317 36.3641 17.9468C37.5822 18.4647 38.759 19.1342 39.7968 19.9833C39.7538 18.83 39.6904 17.6605 39.5146 16.5201C39.3456 15.4229 39.1811 14.9753 38.63 14.0439C37.4891 12.1159 36.084 10.5578 34.3519 9.21957C28.8807 4.99247 19.978 5.02696 14.4638 9.17801L14.4634 9.1776ZM44.1375 8.0139C43.0087 9.43278 45.2062 11.0765 46.1105 9.51008C46.8953 8.15105 45.1227 6.77541 44.1375 8.0139ZM16.1996 37.7296C19.4909 38.621 22.8848 38.8022 26.2833 38.6871C28.4566 38.6136 31.3642 38.2528 33.4043 37.4802C34.7535 37.0571 36.2021 36.5717 37.4303 35.8394C41.5514 33.3828 42.0156 26.0839 41.8474 21.6681C41.7831 19.9837 41.8232 18.0832 40.8229 16.7C40.7528 16.6028 39.7805 15.4062 39.7183 15.4948C39.7797 16.0043 39.8887 16.5068 39.9496 17.0171C40.3032 19.9629 40.3065 23.4872 40.0335 26.4459C39.6753 30.3239 38.8267 33.9131 34.8646 35.0905C31.0381 36.2276 26.2211 36.3244 22.2586 36.1902C19.7593 36.1054 16.8575 35.8847 14.4242 35.2775C9.25773 33.9883 8.83526 29.2193 8.66452 24.4078C8.57477 21.8747 8.54221 19.1571 8.86574 16.6435C8.92168 16.2104 9.00725 15.7753 9.09617 15.3485L7.97196 16.5329C7.79955 16.8268 7.42092 17.178 7.30194 17.4897C7.19048 17.7814 7.09655 18.6538 7.05105 19.0124C6.67951 21.9196 6.75757 25.0782 7.21469 27.9716C7.60042 30.4108 8.27796 32.7722 9.88558 34.6346C11.3179 36.2941 14.1733 37.1806 16.2005 37.7296H16.1996ZM15.2132 35.0281C20.3483 36.1158 26.538 36.1179 31.7073 35.3191C31.7324 35.3153 31.7612 35.3232 31.7862 35.3191C31.8234 35.3132 31.8676 35.3249 31.9048 35.3191C33.5425 35.0539 35.7679 34.6819 37.0533 33.5307C39.5205 31.321 39.7041 26.9937 39.7952 23.826C39.8223 22.8863 39.9145 21.8356 39.8361 20.8976C39.7972 20.4338 39.2955 20.0984 38.9569 19.8495C34.6809 16.705 28.0337 16.2541 22.9683 16.4108C18.8321 16.5388 14.3829 17.109 10.7272 19.2697C10.3824 19.4738 9.04566 20.342 8.97887 20.7114L8.97636 24.0786C8.97928 24.1767 9.0156 24.2677 9.01894 24.3662C9.12915 27.5095 9.34623 32.0046 12.1382 33.8819C13.0553 34.4982 14.1541 34.8041 15.2132 35.0281ZM42.2039 18.7365C42.216 18.8404 42.2273 18.9247 42.2435 19.0274C42.2598 19.1301 42.2026 19.2747 42.2995 19.3632C42.6485 19.6944 43.2571 20.0086 43.5652 20.3573C43.7334 20.5477 43.6487 20.8789 43.6625 21.1279C43.8111 23.8384 43.6136 26.5619 43.1507 29.2301C43.2884 29.1889 43.422 29.0671 43.5456 29.0019C44.2494 28.6312 45.0059 28.3556 45.7915 28.2505C45.8959 27.5535 46.0395 26.8578 46.11 26.1546C46.234 24.9211 46.2808 23.5645 46.1493 22.3319C46.1096 21.9611 46.0587 21.5921 45.8733 21.2717C45.5189 20.6591 44.7996 20.4188 44.2436 20.0585C43.521 19.5901 42.8589 19.0262 42.1838 18.4875C42.1171 18.5553 42.1972 18.6787 42.2039 18.7365ZM2.90152 21.2717C2.67818 21.6777 2.64312 22.0692 2.59093 22.5442C2.38638 24.4061 2.56296 26.3113 2.91154 28.1391C2.9679 28.2858 3.44088 28.3124 3.61203 28.3569C4.14513 28.4953 4.6586 28.7076 5.15037 28.9599C5.28228 29.0277 5.42672 29.1681 5.58494 29.1881C5.46388 28.3182 5.31401 27.4455 5.22968 26.5702C5.0531 24.7453 5.0172 22.8751 5.11279 21.0447C5.12281 20.8561 5.08107 20.5905 5.11196 20.4205C5.1512 20.2036 6.25663 19.4783 6.4545 19.2581C6.52923 19.1359 6.51545 18.9954 6.53131 18.8612C6.53799 18.8038 6.62942 18.4817 6.51211 18.5291C5.88968 18.9987 5.25932 19.4605 4.61811 19.901C4.00361 20.3228 3.28016 20.5813 2.90069 21.2717H2.90152ZM5.93978 20.0664C5.81913 20.1732 5.45594 20.4301 5.42756 20.5867C5.3783 20.8573 5.43758 21.3606 5.42839 21.6681C5.37078 23.5841 5.44342 25.4905 5.66843 27.3964C5.73564 27.9645 5.81329 28.812 5.95063 29.3435C6.02035 29.6128 6.18983 29.6062 6.37352 29.75C6.58558 29.9162 6.81435 30.1352 7.03268 30.2819C7.08987 30.3202 7.13663 30.3738 7.12285 30.2703C7.01056 29.4271 6.7438 28.5214 6.61689 27.6441C6.2345 25.0021 6.20946 22.3148 6.41276 19.6508C6.24661 19.778 6.09632 19.9276 5.93978 20.0664ZM42.7562 20.1495C42.6042 20.0261 42.4489 19.8478 42.2832 19.7339C42.499 22.5326 42.4644 25.3658 42.0344 28.1378C41.93 28.812 41.6541 29.7225 41.6111 30.3526C41.6094 30.3788 41.6002 30.4212 41.6315 30.4149C41.8662 30.2275 42.092 30.0255 42.3224 29.8335C42.4656 29.7142 42.6877 29.6403 42.7537 29.4358C42.8597 29.1083 42.9307 28.4313 42.9866 28.0601C43.3156 25.884 43.4621 23.37 43.3498 21.1665C43.3431 21.0335 43.3281 20.7393 43.3081 20.6287C43.2826 20.4883 42.8764 20.248 42.7562 20.1504V20.1495ZM30.6812 38.8106C30.2237 38.8554 29.7708 38.9564 29.3149 39.0125C26.9512 39.3039 24.5863 39.3342 22.2169 39.2262C20.8184 39.1622 19.4328 39.0138 18.0544 38.769L18.3178 39.5923C21.0676 40.1401 23.8412 40.3479 26.6365 40.1397C27.9043 40.0453 29.1659 39.8591 30.4182 39.6426L30.6812 38.8106ZM30.2867 40.0985C27.1771 40.7976 23.9577 40.9397 20.8017 40.5087L18.4481 40.0781L18.7933 41.0548C22.4469 42.2094 26.3547 42.1533 30.002 41.0045L30.2867 40.0985ZM12.372 48.3275C12.1424 48.9459 12.0355 49.5153 11.8986 50.1561C11.785 50.6885 11.613 51.2217 11.6222 51.777H15.6273L15.6799 51.708C16.0452 48.2144 16.9865 44.7857 18.4865 41.6549C18.5019 41.5668 18.4756 41.6071 18.4314 41.5934C18.2402 41.5344 17.9792 41.5008 17.778 41.47C17.4695 41.423 17.0759 41.3561 16.7715 41.3457C16.6442 41.3416 16.4751 41.327 16.3558 41.364C15.9838 41.48 14.8767 43.0347 14.6125 43.4346C13.6339 44.9158 12.875 46.6031 12.372 48.3275ZM30.8394 41.5116C30.7664 41.524 30.2433 41.5469 30.2462 41.6171C31.6531 44.7799 32.5936 48.1853 32.9309 51.6731L32.9902 51.777H36.8771C36.817 50.9844 36.6258 50.216 36.443 49.4496C36.3983 49.2622 36.372 49.0398 36.324 48.8474C36.3165 48.8266 36.304 48.8241 36.2852 48.8262C35.7704 46.867 34.9656 44.9183 33.871 43.2438C33.4298 42.5689 32.9221 41.8644 32.3118 41.3536C31.8121 41.3308 31.3262 41.4284 30.8394 41.5116ZM28.1164 42.0934C25.4129 42.6619 22.9115 42.6258 20.2168 42.039C20.0356 41.9995 19.1206 41.7264 19.0404 41.7796C18.997 41.8083 18.6296 42.6166 18.5729 42.7434C17.7768 44.5151 17.1443 46.5798 16.7319 48.4933C16.5002 49.568 16.2994 50.6744 16.2389 51.7774C20.421 51.7728 24.6051 51.7828 28.7872 51.7774C29.9837 51.7757 31.1818 51.7782 32.3782 51.7774C32.3101 50.6183 32.1048 49.4604 31.8651 48.3275C31.3805 46.0375 30.6299 43.8439 29.6898 41.7243C29.1596 41.8195 28.644 41.9824 28.1164 42.0934Z" fill="#4F475F"/>
<path d="M3.17808 18.404C3.14343 15.8218 3.20354 13.2355 3.17849 10.6526C3.15762 10.5399 2.87124 10.4647 2.75603 10.3911C0.637429 9.03877 3.0232 5.66906 4.85625 7.51434C5.92953 8.59491 5.30794 10.3467 3.92616 10.66V17.7153L4.45424 17.9148C4.46635 18.3325 4.52187 18.7809 4.51978 19.194C4.35071 19.1849 4.23508 19.2988 4.06601 19.3187C3.76794 19.3541 3.47489 19.2547 3.17808 19.2772C3.17098 19.14 3.18141 18.9991 3.17808 18.8616L4.04847 18.67L4.04639 18.3628L3.17808 18.4048V18.404ZM2.82282 7.93077C1.49322 9.35339 3.78631 11.1131 4.71682 9.51007C5.46073 8.22876 3.86187 6.81903 2.82282 7.93077ZM4.40081 18.3209C4.25136 18.2751 4.12862 18.5129 4.24134 18.5931L4.40081 18.6118V18.3209Z" fill="#4F475F"/>
<path d="M4.51927 19.1936C4.51927 19.2215 4.51927 19.2489 4.51927 19.2768C4.45081 19.3162 4.39528 19.4014 4.32431 19.4247C4.25335 19.448 4.10515 19.4322 4.08845 19.4484C4.07593 19.4605 4.10223 19.5319 4.0609 19.5706C3.94359 19.6807 3.42302 19.8507 3.25688 19.7751C3.24143 19.6151 3.18841 19.4738 3.17798 19.2763C3.47479 19.2543 3.76784 19.3532 4.06591 19.3179C4.23498 19.298 4.35061 19.1837 4.51968 19.1932L4.51927 19.1936Z" fill="#655C75"/>
<path d="M45.5578 19.2768C45.5524 19.4459 45.524 19.6063 45.5181 19.7755C45.3491 19.886 44.7968 19.7281 44.6753 19.613C44.6315 19.5714 44.6319 19.4264 44.6106 19.3603L45.5574 19.2768H45.5578Z" fill="#655C75"/>
<path d="M3.17805 18.404L4.04636 18.362L4.04845 18.6692L3.17805 18.8608C3.17429 18.7091 3.18014 18.5557 3.17805 18.4036V18.404Z" fill="#655C75"/>
<path d="M45.5578 18.4455C45.5549 18.5835 45.562 18.7232 45.5578 18.8611L44.6481 18.6708C44.6561 18.5856 44.6164 18.3977 44.7154 18.3653L45.5582 18.4451L45.5578 18.4455Z" fill="#655C75"/>
<path d="M44.1769 19.2768H44.493C44.5122 19.5677 44.2187 19.3241 44.1377 19.2768H44.1774H44.1769Z" fill="#655C75"/>
<path d="M39.0075 20.4404C39.1051 23.0488 38.9695 25.8346 38.3963 28.3789C37.4382 32.6297 35.8861 33.9796 32.0226 35.2164C31.9579 35.2372 31.8823 35.2073 31.9048 35.3191C31.8677 35.3249 31.8239 35.3132 31.7863 35.3191L31.7654 35.2771L31.7074 35.3191C26.538 36.1178 20.3479 36.1158 15.2132 35.0281C15.2337 34.9259 15.1681 34.94 15.1059 34.9143C14.2088 34.5469 13.4031 34.1824 12.746 33.4077C10.4676 30.7208 10.0727 25.2087 10.2 21.7475C10.2154 21.3219 10.2434 20.6146 10.321 20.2127C10.3377 20.1254 10.3653 20.1184 10.4246 20.0726C10.6446 19.9035 11.2895 19.6545 11.5726 19.5361C14.9369 18.1284 18.8484 17.5865 22.4553 17.4493C27.8497 17.2445 34.1908 17.6954 39.007 20.44L39.0075 20.4404ZM38.0068 23.2815C37.4883 22.6818 36.7457 23.693 37.4015 24.0641C37.8891 24.3401 38.3483 23.6763 38.0068 23.2815ZM16.3086 24.2748C14.1859 24.5786 14.4939 28.1586 16.8067 27.9163C19.0313 27.6832 18.7591 23.924 16.3086 24.2748ZM32.053 24.2748C30.1615 24.5449 30.1657 27.7405 32.2012 27.9209C34.7506 28.1466 34.7486 23.89 32.053 24.2748ZM21.7519 27.2651C21.392 27.3773 21.8107 28.1511 21.928 28.3502C23.0965 30.3318 25.8884 30.2765 26.9922 28.2546C27.0536 28.142 27.2681 27.7019 27.2765 27.6034C27.2957 27.3814 27.0532 27.2335 26.8624 27.3287C26.768 27.3756 26.5142 28.0302 26.3957 28.2085C25.3925 29.7167 23.195 29.5359 22.338 27.9595C22.186 27.6803 22.1322 27.1466 21.751 27.2655L21.7519 27.2651ZM14.1003 28.8065C13.7346 28.8423 12.4375 29.1656 12.8909 29.7645C13.3873 30.4199 15.748 30.3896 16.2994 29.7932C16.6944 29.366 16.1492 29.0709 15.796 28.9487C15.2875 28.7725 14.6321 28.7546 14.0999 28.8065H14.1003ZM33.8306 28.8065C32.349 28.9528 32.01 29.9337 33.7057 30.2017C34.3048 30.2965 35.098 30.2657 35.664 30.0313C36.3149 29.7616 36.3812 29.3144 35.7033 29.0119C35.1698 28.7741 34.4046 28.75 33.8306 28.8065Z" fill="#E9E8ED"/>
<path d="M33.7592 11.0062L31.9044 16.6585C27.1567 15.7736 21.6633 15.7283 16.9093 16.6169L15.0942 11.0062C15.4921 10.7731 16.0865 10.5108 16.5161 10.3217C16.9715 10.1214 17.4562 9.92526 17.9355 9.80099C18.355 11.7838 21.4463 11.0067 20.7767 8.88667C22.4828 8.52759 24.2282 8.4 25.9652 8.5546C28.594 8.78817 31.5053 9.55704 33.7588 11.0062H33.7592ZM17.8858 11.9305C17.6107 11.9792 17.3694 12.2801 17.3473 12.5702C17.3009 13.1803 17.9634 13.5734 18.4289 13.2085C18.9849 12.7726 18.6481 11.7959 17.8862 11.9305H17.8858Z" fill="#A27CBC"/>
<path d="M40.8226 16.7C40.7499 16.7424 40.7863 16.8492 40.7942 16.9161C41.3052 21.2027 41.2897 25.6492 40.3763 29.8825C39.5577 33.677 36.7636 36.208 33.4039 37.4802C31.3638 38.2528 28.4562 38.6135 26.283 38.6871C22.8844 38.8022 19.4901 38.621 16.1993 37.7296C16.2139 37.6352 16.1705 37.6028 16.122 37.5409C15.9442 37.3152 15.6937 37.0866 15.5084 36.8572C15.116 36.3714 14.7211 35.834 14.4238 35.2775C16.8572 35.8847 19.7589 36.1054 22.2583 36.1902C26.2208 36.3244 31.0378 36.2276 34.8642 35.0905C38.8267 33.9127 39.675 30.3239 40.0332 26.4459C40.3066 23.4872 40.3028 19.9629 39.9493 17.0171C39.8879 16.5072 39.7794 16.0043 39.718 15.4948C39.7802 15.4062 40.752 16.6028 40.8226 16.7Z" fill="#A27BBB"/>
<path d="M39.8362 20.8976C39.5473 20.7738 39.2809 20.5963 39.0075 20.4404C34.1913 17.6958 27.8501 17.2449 22.4557 17.4498C18.8489 17.5869 14.9369 18.1289 11.573 19.5365C11.29 19.655 10.645 19.9039 10.425 20.0731C10.3653 20.1188 10.3382 20.1263 10.3215 20.2131C10.2439 20.6146 10.2159 21.3224 10.2004 21.7479C10.0735 25.2087 10.468 30.7208 12.7465 33.4081C13.4036 34.1828 14.2093 34.5473 15.1064 34.9147C15.1682 34.94 15.2337 34.9259 15.2137 35.0286C14.1546 34.8041 13.0563 34.4987 12.1391 33.8823C9.34716 32.005 9.13009 27.5099 9.01988 24.3667C9.01654 24.2682 8.9798 24.1776 8.97729 24.0791L8.9798 20.7118C9.04701 20.3424 10.3833 19.4738 10.7281 19.2701C14.3838 17.1094 18.833 16.5396 22.9692 16.4112C28.0342 16.2541 34.6818 16.7054 38.9578 19.8499C39.2964 20.0988 39.7982 20.4342 39.837 20.898L39.8362 20.8976Z" fill="#C4C4CD"/>
<path d="M34.3513 9.21917L33.799 11.0063C33.7894 11 33.7689 11.0125 33.7593 11.0063C31.5059 9.55664 28.5946 8.78819 25.9658 8.55462C24.2284 8.40001 22.483 8.52802 20.7772 8.88669C20.7601 8.83266 20.5702 8.5355 20.5213 8.47067C19.5508 7.18105 17.5854 8.14234 17.9365 9.80101C17.4572 9.92528 16.9725 10.1214 16.5171 10.3218C16.0875 10.5109 15.4931 10.7731 15.0952 11.0063C15.0848 11.0125 15.0631 10.9996 15.0556 11.0063L14.4636 9.17761C19.9778 5.02656 28.8801 4.99206 34.3517 9.21917H34.3513Z" fill="#B790CC"/>
<path d="M14.4238 35.2775C14.721 35.834 15.116 36.3718 15.5084 36.8572C15.6937 37.0866 15.9442 37.3152 16.122 37.5409C16.1705 37.6024 16.2143 37.6352 16.1993 37.7296C14.1721 37.1806 11.3167 36.2937 9.88438 34.6346C8.27717 32.7723 7.59922 30.4108 7.21349 27.9716C6.75596 25.0786 6.67831 21.9196 7.04985 19.0124C7.09577 18.6538 7.18927 17.7814 7.30074 17.4897C7.42013 17.178 7.79835 16.8268 7.97076 16.533L9.09497 15.3485C9.00605 15.7753 8.92047 16.21 8.86453 16.6435C8.541 19.1567 8.57356 21.8743 8.66332 24.4078C8.83364 29.2193 9.25653 33.9883 14.423 35.2775H14.4238Z" fill="#8E6BA7"/>
<path d="M34.3513 9.21917C36.0833 10.5574 37.4885 12.1159 38.6294 14.0435C39.1804 14.9749 39.3449 15.4225 39.514 16.5197C39.6897 17.6601 39.7532 18.83 39.7962 19.9829C38.7584 19.1338 37.582 18.4643 36.3634 17.9464C36.3877 17.8587 36.4102 17.7698 36.4064 17.6763C36.3012 15.2824 35.8875 12.3707 33.7986 11.0058L34.3509 9.21875L34.3513 9.21917Z" fill="#FCFCFD"/>
<path d="M16.9099 16.6169C15.0568 16.9635 12.9115 17.6468 11.2275 18.5287C11.1615 18.4871 11.1841 18.3724 11.1924 18.3055C11.4329 16.343 12.0595 14.2201 12.8059 12.4193C13.5206 11.9372 14.262 11.5204 15.0142 11.1068C15.0543 11.0848 15.0493 11.0121 15.0552 11.0063C15.0623 10.9996 15.0844 11.0125 15.0948 11.0063L16.9099 16.6169Z" fill="#E9E8ED"/>
<path d="M36.3639 17.9468C34.917 17.3317 33.4396 16.9444 31.905 16.6585L33.7598 11.0063C33.7694 11.0125 33.7898 11 33.7995 11.0063C35.8884 12.3711 36.3017 15.2828 36.4073 17.6767C36.4115 17.7702 36.3885 17.8591 36.3643 17.9468H36.3639Z" fill="#E9E8ED"/>
<path d="M14.3058 9.30228C13.796 10.3309 13.1874 11.3196 12.8063 12.4193C12.0598 14.2201 11.4332 16.343 11.1928 18.3055C11.1844 18.3724 11.1619 18.4867 11.2278 18.5287C10.4347 18.9443 9.682 19.4596 8.979 20.0249C9.04705 18.7186 9.08128 17.402 9.30671 16.1103C9.49749 15.0177 9.86318 14.3847 10.4459 13.4866C11.5205 11.8304 12.7783 10.488 14.3058 9.30228Z" fill="#C4C4CD"/>
<path d="M5.15097 28.9603C4.65879 28.7076 4.14532 28.4957 3.61264 28.3573C3.44149 28.3128 2.96851 28.2862 2.91215 28.1395C2.56357 26.3117 2.38699 24.4061 2.59154 22.5446C2.64373 22.0696 2.67921 21.6777 2.90213 21.2721C3.63268 21.073 4.36407 20.6645 4.99359 20.2331C5.00695 20.3183 4.97815 20.381 4.94934 20.4562C4.24259 22.3044 4.63082 24.5013 4.7619 26.4409L5.15139 28.9607L5.15097 28.9603Z" fill="#A27BBB"/>
<path d="M45.8739 21.2717C46.0592 21.5921 46.1102 21.9611 46.1498 22.3319C46.2813 23.5645 46.2346 24.9211 46.1106 26.1546C46.0396 26.8578 45.8964 27.5535 45.7921 28.2505C45.0064 28.356 44.2504 28.6316 43.5461 29.0019C43.6927 28.1499 43.8668 27.2996 43.9745 26.4401C44.1485 25.0516 44.2608 23.3958 44.1769 21.9994C44.1419 21.4167 43.9857 20.8669 43.8221 20.3158C44.4445 20.7326 45.1454 21.1279 45.8739 21.2717Z" fill="#A27BBB"/>
<path d="M33.4043 37.4802C36.7636 36.208 39.5576 33.677 40.3767 29.8825C41.2901 25.6492 41.3059 21.2027 40.7945 16.9161C40.7866 16.8496 40.7503 16.7428 40.8229 16.7C41.8232 18.0831 41.7831 19.9837 41.8474 21.6681C42.016 26.0839 41.5518 33.3828 37.4303 35.8394C36.2021 36.5713 34.7539 37.0571 33.4043 37.4802Z" fill="#B790CC"/>
<path d="M39.8362 20.8976C39.9147 21.8356 39.822 22.8863 39.7953 23.826C39.7043 26.9937 39.5202 31.321 37.0535 33.5307C35.7681 34.6819 33.5426 35.0539 31.9049 35.3191C31.8824 35.2077 31.958 35.2372 32.0227 35.2164C35.8867 33.9796 37.4388 32.6293 38.3964 28.3789C38.97 25.8346 39.1053 23.0488 39.0076 20.4405C39.281 20.5963 39.5473 20.7738 39.8362 20.8976Z" fill="#FCFCFD"/>
<path d="M34.0357 4.73063C35.4851 5.80081 36.8619 7.08918 37.8045 8.67803C34.9232 5.46666 31.0046 3.21658 26.7899 2.74072C24.6367 2.49759 22.4133 2.56741 20.2964 3.03954C16.7496 3.83043 13.4851 6.02814 10.9712 8.71959C11.6813 7.51725 12.7074 6.48738 13.7535 5.60339C13.7581 5.66407 13.913 5.55809 13.9226 5.55103C14.7934 4.89022 15.8283 4.29798 16.8173 3.82212C22.1444 1.25992 28.9916 1.57827 34.0169 4.77136L34.0361 4.73063H34.0357Z" fill="#CDABDF"/>
<path d="M30.6815 38.8105L30.418 39.6426C29.1657 39.8595 27.9041 40.0453 26.6363 40.1396C23.841 40.3479 21.0674 40.1396 18.3176 39.5923L18.0542 38.769C19.4326 39.0138 20.8186 39.1621 22.2167 39.2261C24.5862 39.3342 26.9511 39.3039 29.3147 39.0125C29.7706 38.9564 30.2239 38.8554 30.681 38.8105H30.6815ZM28.5111 39.5586L20.6191 39.6621C22.2864 39.8886 24.0059 40.0091 25.6916 39.9339C26.5845 39.894 27.5597 39.7519 28.4531 39.6413C28.5119 39.6339 28.5737 39.6085 28.5115 39.5582L28.5111 39.5586Z" fill="#655C75"/>
<path d="M34.0355 4.73062L34.0163 4.77135C28.991 1.57869 22.1442 1.26034 16.8166 3.82212C15.8273 4.29798 14.7928 4.89022 13.922 5.55103C13.9124 5.55851 13.7575 5.66407 13.7529 5.60339C17.6403 2.31888 22.3133 1.12443 27.2614 1.91159C29.7015 2.29976 32.0129 3.25523 34.0355 4.73062Z" fill="#E9E8ED"/>
<path d="M5.93985 20.0664C6.0964 19.9276 6.2471 19.778 6.41283 19.6508C6.20995 22.3148 6.23458 25.0025 6.61697 27.6441C6.74387 28.5215 7.01105 29.4266 7.12293 30.2703C7.1367 30.3734 7.08953 30.3202 7.03275 30.282C6.81442 30.1353 6.58566 29.9162 6.37359 29.75C6.44372 29.7159 6.38987 29.6133 6.3811 29.5559C6.08179 27.63 5.80125 25.7049 5.74072 23.7462C5.70273 22.5139 5.74031 21.2792 5.93985 20.0664Z" fill="#8E6BA7"/>
<path d="M42.7561 20.1495C42.7294 20.5863 42.8187 21.0231 42.8366 21.457C42.951 24.2291 42.6759 26.7543 42.3278 29.4857C42.3157 29.58 42.2835 29.75 42.3219 29.8331C42.0915 30.0251 41.8661 30.2275 41.631 30.4145C41.6001 30.4208 41.6089 30.3784 41.6106 30.3522C41.6536 29.7226 41.9295 28.8115 42.0339 28.1374C42.4639 25.3654 42.4981 22.5326 42.2827 19.7335C42.4488 19.8474 42.6041 20.0257 42.7557 20.1491L42.7561 20.1495Z" fill="#8E6BA7"/>
<path d="M42.3222 29.8331C42.2838 29.75 42.316 29.58 42.3281 29.4857C42.6762 26.7543 42.9513 24.2291 42.837 21.457C42.819 21.0231 42.7297 20.5863 42.7564 20.1495C42.8766 20.2472 43.2828 20.4874 43.3083 20.6279C43.3283 20.7389 43.3433 21.0331 43.35 21.1657C43.4619 23.3692 43.3158 25.8832 42.9868 28.0593C42.9309 28.4304 42.8599 29.1075 42.7539 29.435C42.6879 29.6394 42.4658 29.713 42.3227 29.8327L42.3222 29.8331Z" fill="#A27BBB"/>
<path d="M6.53189 18.8612C6.51603 18.9954 6.5298 19.1355 6.45508 19.2581C6.2572 19.4783 5.15178 20.2036 5.11253 20.4205C5.08164 20.5905 5.12297 20.8561 5.11337 21.0447C5.01777 22.8755 5.05367 24.7453 5.23026 26.5702C5.315 27.4455 5.46445 28.3182 5.58551 29.1881C5.4273 29.1681 5.28286 29.0277 5.15094 28.9599L4.76145 26.4401C4.63079 24.5005 4.24214 22.3036 4.94889 20.4554C4.9777 20.3802 5.00608 20.317 4.99314 20.2322C5.31291 20.0128 5.97542 19.5361 6.2188 19.2581C6.32817 19.133 6.31147 18.8915 6.53231 18.8607L6.53189 18.8612Z" fill="#8E6BA7"/>
<path d="M43.427 19.9833C43.437 19.9879 43.4604 20.0132 43.4667 20.0249C43.475 20.0402 43.4558 20.0943 43.4679 20.1071C43.48 20.12 43.5268 20.1009 43.5456 20.108C43.6883 20.1624 43.7113 20.2418 43.8219 20.3158C43.9856 20.8669 44.1417 21.4167 44.1768 21.9994C44.2603 23.3958 44.1484 25.0516 43.9743 26.4401C43.8666 27.3 43.6921 28.1503 43.546 29.0019C43.4224 29.0671 43.2884 29.1889 43.1511 29.2301C43.614 26.5619 43.8115 23.8384 43.6629 21.1279C43.6491 20.8789 43.7343 20.5477 43.5656 20.3573C43.2575 20.0086 42.6489 19.6944 42.2999 19.3632C42.2026 19.2747 42.2606 19.1346 42.2439 19.0274C42.6305 19.278 42.9215 19.6649 43.2893 19.9438C43.3536 19.9924 43.3995 19.97 43.4279 19.9833H43.427Z" fill="#8E6BA7"/>
<path d="M6.37403 29.75C6.19035 29.6062 6.02086 29.6128 5.95115 29.3435C5.81338 28.812 5.73615 27.9645 5.66894 27.3964C5.44393 25.4904 5.37088 23.5841 5.42891 21.6681C5.43809 21.3606 5.37923 20.8573 5.42807 20.5867C5.45646 20.4296 5.81965 20.1732 5.94029 20.0664C5.74075 21.2791 5.70317 22.5139 5.74116 23.7462C5.80169 25.7049 6.08223 27.63 6.38154 29.5559C6.39031 29.6132 6.44458 29.7159 6.37403 29.75Z" fill="#A27BBB"/>
<path d="M46.1106 9.51008C45.2114 9.59362 44.3573 8.92907 44.1377 8.01391C45.1229 6.77541 46.8954 8.15106 46.1106 9.51008Z" fill="#B790CC"/>
<path d="M15.0554 11.0062C15.0492 11.0121 15.0546 11.0848 15.0145 11.1068C14.2627 11.5203 13.5208 11.9372 12.8062 12.4193C13.1873 11.3196 13.7959 10.3309 14.3057 9.30226C14.3591 9.26112 14.4079 9.21914 14.4635 9.17758L15.0554 11.0062Z" fill="#FCFCFD"/>
<path d="M46.1106 9.51009C45.2064 11.0765 43.0089 9.43279 44.1377 8.01392C44.3573 8.92908 45.2114 9.59363 46.1106 9.51009Z" fill="#8E6BA7"/>
<path d="M2.90161 21.2717C3.28108 20.5818 4.00453 20.3228 4.61903 19.901C5.26024 19.4605 5.89061 18.9987 6.51303 18.5291C6.62992 18.4817 6.53892 18.8038 6.53224 18.8612C6.3114 18.8919 6.3281 19.1334 6.21873 19.2585C5.97535 19.5365 5.31326 20.0132 4.99307 20.2327C4.36355 20.664 3.63216 21.0726 2.90161 21.2717Z" fill="#B790CC"/>
<path d="M45.8738 21.2716C45.1449 21.1278 44.4444 20.7326 43.822 20.3158C43.7118 20.2418 43.6888 20.1624 43.5456 20.108C43.5598 20.0319 43.5381 20.0124 43.4667 20.0248C43.4605 20.0132 43.4375 19.9878 43.4271 19.9833L42.2039 18.7365C42.1972 18.6787 42.1171 18.5553 42.1839 18.4875C42.8593 19.0257 43.521 19.5901 44.2436 20.0585C44.8001 20.4192 45.5194 20.659 45.8734 21.2716H45.8738Z" fill="#B790CC"/>
<path d="M43.4272 19.9833C43.3988 19.97 43.3529 19.9924 43.2886 19.9438C42.9208 19.6654 42.6298 19.278 42.2433 19.0274C42.227 18.9247 42.2161 18.8404 42.2036 18.7365L43.4268 19.9833H43.4272Z" fill="#A27BBB"/>
<path d="M31.7864 35.3191C31.7614 35.3232 31.7326 35.3153 31.7075 35.3191L31.7655 35.2771L31.7864 35.3191Z" fill="#FCFCFD"/>
<path d="M4.71676 9.51007C3.82966 9.57989 2.94215 8.86879 2.82275 7.93077C3.86222 6.81904 5.46067 8.22876 4.71676 9.51007Z" fill="#B790CC"/>
<path d="M4.71674 9.51008C3.78622 11.1131 1.49313 9.3534 2.82273 7.93079C2.94212 8.8688 3.82964 9.5799 4.71674 9.51008Z" fill="#8E6BA7"/>
<path d="M4.40065 18.3209V18.6118L4.24118 18.5931C4.12847 18.5129 4.2512 18.2752 4.40065 18.3209Z" fill="#655C75"/>
<path d="M16.3086 24.2748C18.7591 23.924 19.0308 27.6832 16.8066 27.9163C14.4939 28.1586 14.1858 24.5786 16.3086 24.2748ZM16.1892 24.8147C15.834 24.9119 15.8039 25.5482 16.198 25.6571C16.9377 25.8616 16.939 24.6094 16.1892 24.8147Z" fill="#4F475F"/>
<path d="M32.0531 24.2748C34.749 23.89 34.7507 28.1466 32.2013 27.9209C30.1657 27.7405 30.1611 24.5454 32.0531 24.2748ZM31.6961 24.8961C31.2027 25.0138 31.3325 25.9115 31.9149 25.793C32.4688 25.6804 32.301 24.7515 31.6961 24.8961Z" fill="#4F475F"/>
<path d="M14.1005 28.8066C14.6327 28.7542 15.2881 28.7725 15.7966 28.9487C16.1498 29.0709 16.695 29.366 16.3001 29.7932C15.7486 30.3896 13.3879 30.4199 12.8915 29.7645C12.4377 29.1656 13.7348 28.8427 14.1009 28.8066H14.1005Z" fill="#E8B6D3"/>
<path d="M33.8307 28.8065C34.4047 28.75 35.1699 28.7741 35.7035 29.0119C36.3814 29.314 36.3146 29.7616 35.6642 30.0313C35.0981 30.2657 34.305 30.2965 33.7059 30.2017C32.0102 29.9341 32.3492 28.9528 33.8307 28.8065Z" fill="#E8B6D3"/>
<path d="M21.7519 27.2651C22.1331 27.1462 22.1869 27.6799 22.3389 27.9591C23.1959 29.5359 25.3934 29.7163 26.3966 28.2081C26.5151 28.0298 26.7685 27.3752 26.8633 27.3282C27.0541 27.2331 27.2962 27.3814 27.2774 27.603C27.2691 27.7015 27.0545 28.1416 26.9931 28.2542C25.8889 30.2761 23.0974 30.3314 21.9289 28.3498C21.8116 28.1507 21.3925 27.3769 21.7528 27.2647L21.7519 27.2651Z" fill="#4F475F"/>
<path d="M38.0069 23.2815C38.3484 23.6768 37.8892 24.3401 37.4016 24.0641C36.7458 23.693 37.4885 22.6814 38.0069 23.2815Z" fill="#FCFCFD"/>
<path d="M20.7772 8.88667C21.4468 11.0067 18.3555 11.7838 17.936 9.801C17.5849 8.14191 19.5507 7.18104 20.5209 8.47065C20.5697 8.53549 20.7601 8.83264 20.7768 8.88667H20.7772Z" fill="#FCFCFD"/>
<path d="M17.886 11.9305C18.6478 11.7959 18.9847 12.7726 18.4287 13.2085C17.9632 13.5734 17.3007 13.1803 17.347 12.5702C17.3692 12.2801 17.6104 11.9792 17.8856 11.9305H17.886Z" fill="#FCFCFD"/>
<path d="M28.5109 39.5586C28.5735 39.6089 28.5113 39.6343 28.4524 39.6417C27.5591 39.7523 26.5843 39.8944 25.6909 39.9343C24.0052 40.0096 22.2857 39.889 20.6184 39.6625L28.5104 39.559L28.5109 39.5586Z" fill="#8E6BA7"/>
<path d="M43.4668 20.0248C43.5382 20.0124 43.5599 20.0319 43.5457 20.108C43.5269 20.1009 43.4798 20.1192 43.4681 20.1071C43.4564 20.0951 43.4752 20.0402 43.4668 20.0248Z" fill="#A27BBB"/>
<path d="M16.1892 24.8147C16.9394 24.6098 16.9377 25.862 16.198 25.6571C15.8035 25.5482 15.8339 24.9115 16.1892 24.8147Z" fill="#FCFCFD"/>
<path d="M31.6961 24.8962C32.301 24.7519 32.4689 25.6804 31.9149 25.793C31.3325 25.9115 31.2027 25.0138 31.6961 24.8962Z" fill="#FCFCFD"/>
</g>
<defs>
<clipPath id="clip0_73_1620">
<rect width="49" height="40" fill="white"/>
</clipPath>
</defs>
</svg>
